<?xml version="1.0" encoding="UTF-8"?>
<svg xmlns="http://www.w3.org/2000/svg" xmlns:xlink="http://www.w3.org/1999/xlink" width="900pt" height="900pt" viewBox="0 -90 900 900" version="1.1">
<g id="surface1">
<path style=" stroke:none;fill-rule:nonzero;fill:rgb(92.54902%,91.764706%,96.078431%);fill-opacity:1;" d="M 550.875 106.125 C 603.75 100.875 648.75 146.25 668.625 199.125 C 688.125 252.375 682.875 313.875 670.125 367.5 C 657 421.125 636.375 467.625 607.5 505.5 C 579 543 542.625 572.625 502.5 606.75 C 462.375 640.875 418.5 679.875 376.875 676.875 C 334.875 673.875 294.75 628.875 267.375 587.25 C 240.375 545.625 226.5 507.375 187.875 472.5 C 149.25 437.625 86.25 406.125 75 368.625 C 63.375 330.75 103.875 286.125 153 269.25 C 201.75 252.375 259.125 262.875 297.375 259.5 C 336 256.125 355.5 238.5 396 202.5 C 436.5 166.125 497.625 111 550.875 106.125 Z M 550.875 106.125 "/>
</g>
</svg>
